<svg xmlns="http://www.w3.org/2000/svg" height="1024" preserveAspectRatio="none" style="display: block;" version="1.1" viewBox="0 0 2048 2048" width="1024">
<path d="M 0 0 L 406.162 0 L 1643.63 0 L 2048 0 L 2048 409.254 L 2048 1641.85 L 2048 2048 L 1643.8 2048 L 407.257 2048 L 0 2048 L 0 1637.8 L 0 410.53 L 0 0 z" fill="rgb(21,0,33)" transform="translate(0,0)"></path>
<path d="M 2048 1641.85 L 2048 2048 L 1643.8 2048 C 1649.75 2046.68 1661.95 2045.57 1668.63 2044.7 C 1680.74 2043.18 1692.79 2041.16 1704.73 2038.64 C 1860.32 2006.48 1990.38 1880.44 2032.24 1728.22 C 2040.29 1698.95 2043.97 1671.91 2048 1641.85 z" fill="rgb(237,237,236)" transform="translate(0,0)"></path>
<path d="M 0 1637.8 C 4.54549 1671.3 5.55162 1694.94 15.2115 1728.47 C 42.2769 1822.4 98.3834 1903 175.625 1961.88 C 227.723 2001.1 288.032 2028 352.02 2040.56 C 370.124 2043.99 391.57 2044.66 407.257 2048 L 0 2048 L 0 1637.8 z" fill="rgb(237,237,236)" transform="translate(0,0)"></path>
<path d="M 1643.63 0 L 2048 0 L 2048 409.254 C 2045.17 397.211 2042.83 367.751 2039.88 352.045 C 2028.13 292.322 2004 235.721 1969.05 185.887 C 1910.41 101.277 1823.64 40.2256 1724.2 13.6043 C 1710 9.94949 1694.97 6.68818 1680.48 4.62725 C 1668.19 2.87919 1655.91 2.16769 1643.63 0 z" fill="rgb(237,237,236)" transform="translate(0,0)"></path>
<path d="M 0 0 L 406.162 0 L 404.956 0.228166 C 393.248 2.36188 379.944 3.27904 367.975 4.88986 C 353.493 6.9603 339.133 9.81033 324.958 13.4275 C 225.758 39.3632 138.945 99.5838 79.9057 183.415 C 43.5796 234.645 18.8629 293.182 7.47844 354.944 C 4.60329 370.406 2.64947 399.391 0 410.53 L 0 0 z" fill="rgb(237,237,236)" transform="translate(0,0)"></path>
<path d="M 1407.62 293.34 C 1426.84 291.228 1448.64 300.172 1462.26 313.582 C 1475.34 326.28 1482.72 343.726 1482.74 361.952 C 1482.87 386.525 1468.49 416.679 1456.6 437.929 C 1442.5 462.686 1424.96 485.319 1404.51 505.153 C 1382.4 526.484 1356.98 544.085 1329.23 557.27 C 1317.55 562.775 1305.18 567.062 1293.12 571.657 C 1236.07 593.373 1188.14 607.875 1143.54 653.099 C 1128 668.858 1103.96 698.332 1097.37 719.669 C 1094.89 727.687 1096.44 820.859 1096.5 837.251 C 1138.37 793.158 1219.95 760.349 1274.36 735.468 L 1408.38 674.416 C 1437.69 661.055 1475.24 646.395 1499.59 626.546 C 1525.33 605.991 1544.57 578.437 1555.01 547.2 C 1561.59 527.059 1562.38 508.724 1578.93 492.485 C 1593.17 478.509 1611.03 471.87 1630.86 471.902 C 1649.55 471.964 1667.42 479.577 1680.4 493.012 C 1717.94 531.171 1692.82 588.772 1672.5 629.031 C 1620.9 731.236 1541.61 760.897 1444.11 805.982 L 1282.09 881.365 C 1234.87 903.563 1197.28 918.561 1158.19 956.876 C 1132.33 982.234 1107.01 1019.03 1096.83 1054.83 C 1095.48 1059.61 1096.01 1083.44 1096.04 1089.43 L 1096.25 1150.81 C 1106.3 1143.06 1116.28 1133.85 1126.46 1125.9 C 1144.62 1111.97 1163.88 1099.55 1184.06 1088.76 C 1209.19 1075.31 1242.15 1061.26 1268.49 1049.17 L 1418.24 980.437 C 1432.07 974.05 1445.95 967.788 1459.89 961.655 C 1469.44 957.516 1481.57 953.09 1490.41 947.894 C 1519.41 930.841 1545.81 901.045 1555.09 868.303 C 1560.74 848.368 1560.74 833.193 1574.89 816.737 C 1600.18 787.33 1647.22 785.019 1675.99 810.554 C 1689.47 822.508 1698.54 841.907 1698.83 859.83 C 1699.24 885.988 1687.91 916.485 1676.54 939.514 C 1648.86 995.391 1604.06 1040.96 1548.66 1069.57 C 1523.7 1082.61 1489.08 1096.71 1462.71 1108.94 L 1321.42 1174.48 C 1268.15 1198.74 1230.87 1213.38 1187.31 1254.58 C 1136.96 1302.19 1104.24 1366.44 1097.01 1435.59 C 1094.92 1455.61 1095.99 1488.88 1096.04 1509.79 L 1096.21 1617.9 C 1096.2 1634.63 1096.02 1651.36 1096.03 1668.09 C 1096.06 1704.94 1064.14 1736.17 1027.4 1737.31 C 1007.77 1737.72 988.786 1730.3 974.637 1716.69 C 965.87 1708.41 957.094 1695.25 955.153 1683.48 C 951.198 1659.5 953.259 1628.69 953.115 1604.1 C 953.257 1551.12 953.474 1498.14 953.025 1445.16 C 952.841 1423.42 946.662 1398.86 939.835 1378.25 C 928.041 1342.64 909.417 1309.36 885.443 1280.51 C 875.574 1268.63 865.419 1258.74 854.285 1248.2 C 808.175 1206.42 736.203 1177.4 678.989 1150.93 C 636.97 1131.66 595.073 1112.13 553.301 1092.33 C 509.525 1072.11 482.924 1063.81 444.032 1031.92 C 400.437 996.176 353.915 926.447 349.38 870.339 C 347.733 850.853 354.098 831.537 367.008 816.849 C 400.316 778.658 467.64 787.284 485.283 836.261 C 490.075 849.564 491.802 863.433 496.956 877.129 C 502.512 891.551 510.463 904.931 520.475 916.704 C 542.576 942.382 553.409 946.025 582.783 958.063 C 595.618 963.448 608.343 969.092 620.949 974.992 L 776.963 1047.48 C 849.414 1080.98 892.518 1098.01 952.951 1151.25 C 952.787 1131.4 952.811 1111.54 953.021 1091.69 C 953.302 1051.99 953.529 1043.62 931.816 1008.29 C 912.543 976.493 886.969 948.971 856.667 927.419 C 827.384 906.527 779.293 886.697 745.277 870.845 L 567.055 787.996 C 523.575 767.777 489.838 754.904 452.466 723.118 C 408.666 686.13 375.094 640.646 357.907 585.472 C 348.034 553.779 341.302 524.5 365.092 496.834 C 377.788 482.113 395.93 473.194 415.341 472.132 C 445.562 470.266 473.15 486.195 484.327 514.56 C 488.834 525.997 490.765 538.964 494.998 550.707 C 500.756 566.681 507.389 581.24 517.983 594.548 C 528.949 607.859 543.151 624.343 557.939 633.601 C 584.946 650.511 617.484 663.695 646.574 676.948 L 788.249 742.115 C 852.606 772.188 898.359 789.178 953.098 837.304 C 952.838 801.187 953.198 765.07 953.132 728.955 C 953.52 719.573 951.219 713.062 946.76 704.881 C 917.455 651.106 865.534 611.622 808.53 590.896 C 793.571 585.456 778.73 579.482 763.793 573.909 C 747.087 567.675 730.072 561.495 714.123 553.505 C 687.449 539.845 662.49 521.082 640.627 500.61 C 608.665 469.544 568.219 409.172 566.931 362.912 C 566.859 343.258 572.905 327.845 586.699 314.165 C 619.367 279.896 685.124 289.811 701.935 335.207 C 711.734 361.669 711.838 374.212 731.202 398.366 C 741.759 411.548 754.575 422.748 769.051 431.445 C 788.344 442.975 808.714 448.944 829.483 456.843 C 858.157 467.748 887.462 477.877 914.838 491.769 C 958.741 514.048 991.206 539.949 1024.9 575.207 C 1062.68 536.226 1092.79 511.421 1142.44 487.496 C 1159.3 479.485 1176.53 472.277 1194.07 465.896 C 1237.09 450.688 1279.45 441.171 1311.19 406.311 C 1322.79 393.565 1332.37 379.288 1338.27 363.001 C 1343.84 347.607 1345.52 333.985 1355.95 320.895 C 1369.78 303.53 1386.27 296.29 1407.62 293.34 z" fill="rgb(251,131,127)" transform="translate(0,0)"></path>
<path d="M 1621.73 1111.32 C 1637.64 1109.24 1652.67 1113.13 1666.2 1121.11 C 1713.32 1148.91 1701.27 1204.14 1682.37 1245.67 C 1658.73 1297.59 1620.39 1339.42 1572.51 1369.97 C 1555.2 1381.02 1537.73 1387.45 1519.36 1395.55 C 1495.51 1406.2 1471.58 1416.64 1447.55 1426.87 C 1416.86 1440.03 1391.51 1447.12 1373.91 1477.76 C 1347.67 1523.45 1371.68 1579.57 1421.76 1594.19 C 1432.04 1597.61 1444.48 1599.74 1454.06 1604.81 C 1481.5 1619.31 1497.18 1649.41 1490.4 1680.4 C 1484.15 1708.93 1462.75 1728.3 1434.9 1735.73 C 1400.26 1742.63 1355.51 1718.21 1327.91 1699.4 C 1179.46 1598.19 1203.22 1398.77 1358.34 1318.81 C 1380.99 1307.14 1403.9 1299.98 1426.91 1289.6 C 1455.77 1276.59 1488.93 1268.31 1512.76 1246.83 C 1533.28 1228.32 1551.6 1204.18 1557.94 1176.79 C 1565.04 1140.64 1583.23 1117.08 1621.73 1111.32 z" fill="rgb(251,131,127)" transform="translate(0,0)"></path>
<path d="M 412.65 1111.28 C 446.727 1109.07 473.309 1124.32 485.687 1156.93 C 490.938 1173.15 493.999 1190.25 501.917 1205.54 C 511.86 1224.75 528.096 1241.96 545.675 1254.43 C 560.672 1265.07 578.52 1271.11 595.403 1278.19 C 610.345 1284.61 625.332 1290.93 640.363 1297.14 C 678.185 1312.39 705.089 1322.43 737.366 1349.24 C 782.525 1386.76 812.842 1439.31 819.6 1497.85 C 825.857 1552.05 807.547 1608.7 773.904 1650.97 C 743.011 1690 681.779 1731.63 631.788 1737.04 C 614.72 1737.42 601.094 1733.42 587.104 1723.51 C 571.448 1712.5 560.855 1695.67 557.693 1676.8 C 552.219 1642.26 578.52 1603.81 612.401 1598.6 C 658.058 1591.58 692.87 1552.44 684.32 1504.14 C 680.983 1484.78 670.981 1467.2 656.046 1454.45 C 641.021 1441.81 620.96 1435.56 602.928 1427.66 L 545.913 1402.34 C 513.325 1388.19 492.078 1380.18 462.027 1359.83 C 408.985 1323.91 360.898 1257.52 350.171 1193.41 C 347.148 1174.54 351.74 1155.24 362.938 1139.76 C 375.377 1122.44 392.094 1114.64 412.65 1111.28 z" fill="rgb(251,131,127)" transform="translate(0,0)"></path>
<metadata><recraft-signature>{"signed_by": "recraft", "signature_b64": "uRD1wGVwawMHswiU5E2epyRDmT2PQK15WT2Y6FxGDfcfWbMD/NQupdfXYlE+Eb+4V6g+Lz9rXl8/kWcfdp41Cw==", "signing_algo": "Ed25519", "generation_timestamp": 1775667814, "identifier": "0022d973-9ecb-40dd-a1a1-be13f67f1677"}</recraft-signature></metadata></svg>